<?xml version="1.0" encoding="UTF-8"?>
<svg xmlns="http://www.w3.org/2000/svg" xmlns:xlink="http://www.w3.org/1999/xlink" viewBox="0 0 100 100" width="100px" height="100px">
<g id="surface23921849">
<path style=" stroke:none;fill-rule:nonzero;fill:rgb(93.333334%,24.313726%,32.941177%);fill-opacity:1;" d="M 15 29 C 15 30.105469 14.105469 31 13 31 C 11.894531 31 11 30.105469 11 29 C 11 27.894531 11.894531 27 13 27 C 14.105469 27 15 27.894531 15 29 Z M 15 29 "/>
<path style=" stroke:none;fill-rule:nonzero;fill:rgb(94.509804%,73.725492%,9.803922%);fill-opacity:1;" d="M 78 13 C 78 13.550781 77.550781 14 77 14 C 76.449219 14 76 13.550781 76 13 C 76 12.449219 76.449219 12 77 12 C 77.550781 12 78 12.449219 78 13 Z M 78 13 "/>
<path style=" stroke:none;fill-rule:nonzero;fill:rgb(53.725493%,17.254902%,86.274511%);fill-opacity:1;" d="M 87 50 C 87 70.433594 70.433594 87 50 87 C 29.566406 87 13 70.433594 13 50 C 13 29.566406 29.566406 13 50 13 C 70.433594 13 87 29.566406 87 50 Z M 87 50 "/>
<path style=" stroke:none;fill-rule:nonzero;fill:rgb(94.509804%,73.725492%,9.803922%);fill-opacity:1;" d="M 87 15 C 87 17.210938 85.210938 19 83 19 C 80.789062 19 79 17.210938 79 15 C 79 12.789062 80.789062 11 83 11 C 85.210938 11 87 12.789062 87 15 Z M 87 15 "/>
<path style=" stroke:none;fill-rule:nonzero;fill:rgb(93.333334%,24.313726%,32.941177%);fill-opacity:1;" d="M 89 24 C 89 25.105469 88.105469 26 87 26 C 85.894531 26 85 25.105469 85 24 C 85 22.894531 85.894531 22 87 22 C 88.105469 22 89 22.894531 89 24 Z M 89 24 "/>
<path style=" stroke:none;fill-rule:nonzero;fill:rgb(98.431373%,80.392158%,34.901962%);fill-opacity:1;" d="M 83 76 C 83 77.105469 82.105469 78 81 78 C 79.894531 78 79 77.105469 79 76 C 79 74.894531 79.894531 74 81 74 C 82.105469 74 83 74.894531 83 76 Z M 83 76 "/>
<path style=" stroke:none;fill-rule:nonzero;fill:rgb(98.431373%,80.392158%,34.901962%);fill-opacity:1;" d="M 19 63 C 19 65.210938 17.210938 67 15 67 C 12.789062 67 11 65.210938 11 63 C 11 60.789062 12.789062 59 15 59 C 17.210938 59 19 60.789062 19 63 Z M 19 63 "/>
<path style=" stroke:none;fill-rule:nonzero;fill:rgb(93.333334%,24.313726%,32.941177%);fill-opacity:1;" d="M 27 87 C 27 88.105469 26.105469 89 25 89 C 23.894531 89 23 88.105469 23 87 C 23 85.894531 23.894531 85 25 85 C 26.105469 85 27 85.894531 27 87 Z M 27 87 "/>
<path style=" stroke:none;fill-rule:nonzero;fill:rgb(100%,100%,100%);fill-opacity:1;" d="M 21 53.5 C 21 54.878906 19.878906 56 18.5 56 C 17.121094 56 16 54.878906 16 53.5 C 16 52.121094 17.121094 51 18.5 51 C 19.878906 51 21 52.121094 21 53.5 Z M 21 53.5 "/>
<path style=" stroke:none;fill-rule:nonzero;fill:rgb(94.509804%,73.725492%,9.803922%);fill-opacity:1;" d="M 22 67 C 22 67.550781 21.550781 68 21 68 C 20.449219 68 20 67.550781 20 67 C 20 66.449219 20.449219 66 21 66 C 21.550781 66 22 66.449219 22 67 Z M 22 67 "/>
<path style=" stroke:none;fill-rule:nonzero;fill:rgb(100%,100%,100%);fill-opacity:1;" d="M 81 34 C 81 34.550781 80.550781 35 80 35 C 79.449219 35 79 34.550781 79 34 C 79 33.449219 79.449219 33 80 33 C 80.550781 33 81 33.449219 81 34 Z M 81 34 "/>
<path style=" stroke:none;fill-rule:nonzero;fill:rgb(19.607843%,19.215687%,78.039217%);fill-opacity:1;" d="M 72.300781 33.699219 L 72.300781 66.300781 C 72.300781 69.609375 69.609375 72.300781 66.300781 72.300781 L 33.699219 72.300781 C 30.390625 72.300781 27.699219 69.609375 27.699219 66.300781 L 27.699219 33.699219 C 27.699219 30.390625 30.390625 27.699219 33.699219 27.699219 L 66.300781 27.699219 C 69.609375 27.699219 72.300781 30.390625 72.300781 33.699219 Z M 72.300781 33.699219 "/>
<path style=" stroke:none;fill-rule:nonzero;fill:rgb(44.705883%,15.686275%,67.843139%);fill-opacity:1;" d="M 72.300781 48.039062 L 72.300781 66.300781 C 72.300781 69.609375 69.609375 72.300781 66.300781 72.300781 L 33.699219 72.300781 C 30.390625 72.300781 27.699219 69.609375 27.699219 66.300781 L 27.699219 33.699219 C 27.699219 30.390625 30.390625 27.699219 33.699219 27.699219 L 51.960938 27.699219 C 60.601562 32.289062 67.710938 39.398438 72.300781 48.039062 Z M 72.300781 48.039062 "/>
<path style=" stroke:none;fill-rule:nonzero;fill:rgb(69.411767%,11.764706%,57.647061%);fill-opacity:1;" d="M 70 71 C 70 71.011719 70 71.011719 70 71.019531 C 68.980469 71.820312 67.699219 72.300781 66.300781 72.300781 L 33.699219 72.300781 C 30.390625 72.300781 27.699219 69.609375 27.699219 66.300781 L 27.699219 33.699219 C 27.699219 32.300781 28.179688 31.019531 28.980469 30 C 28.988281 30 28.988281 30 29 30 C 51.640625 30 70 48.359375 70 71 Z M 70 71 "/>
<path style=" stroke:none;fill-rule:nonzero;fill:rgb(85.882354%,10.196079%,34.509805%);fill-opacity:1;" d="M 62 71 C 62 71.441406 61.988281 71.871094 61.96875 72.300781 L 33.699219 72.300781 C 30.390625 72.300781 27.699219 69.609375 27.699219 66.300781 L 27.699219 38.03125 C 28.128906 38.011719 28.558594 38 29 38 C 47.230469 38 62 52.769531 62 71 Z M 62 71 "/>
<path style=" stroke:none;fill-rule:nonzero;fill:rgb(89.411765%,15.294118%,24.313726%);fill-opacity:1;" d="M 54 71 C 54 71.429688 53.988281 71.871094 53.96875 72.300781 L 33.699219 72.300781 C 30.390625 72.300781 27.699219 69.609375 27.699219 66.300781 L 27.699219 46.03125 C 28.128906 46.011719 28.570312 46 29 46 C 42.808594 46 54 57.191406 54 71 Z M 54 71 "/>
<path style=" stroke:none;fill-rule:nonzero;fill:rgb(95.686275%,48.627451%,13.333334%);fill-opacity:1;" d="M 47 71 C 47 71.441406 46.980469 71.871094 46.949219 72.300781 L 33.699219 72.300781 C 30.390625 72.300781 27.699219 69.609375 27.699219 66.300781 L 27.699219 53.050781 C 28.128906 53.019531 28.558594 53 29 53 C 38.941406 53 47 61.058594 47 71 Z M 47 71 "/>
<path style=" stroke:none;fill-rule:nonzero;fill:rgb(93.725491%,60.000002%,13.333334%);fill-opacity:1;" d="M 41 71 C 41 71.441406 40.980469 71.871094 40.929688 72.300781 L 33.699219 72.300781 C 30.390625 72.300781 27.699219 69.609375 27.699219 66.300781 L 27.699219 59.070312 C 28.128906 59.019531 28.558594 59 29 59 C 35.628906 59 41 64.371094 41 71 Z M 41 71 "/>
<path style=" stroke:none;fill-rule:nonzero;fill:rgb(27.843139%,16.862746%,16.078432%);fill-opacity:1;" d="M 66.300781 73 L 33.699219 73 C 30.007812 73 27 69.992188 27 66.300781 L 27 33.699219 C 27 30.007812 30.007812 27 33.699219 27 L 66.300781 27 C 69.992188 27 73 30.007812 73 33.699219 L 73 66.300781 C 73 69.992188 69.992188 73 66.300781 73 Z M 33.699219 28.398438 C 30.777344 28.398438 28.398438 30.777344 28.398438 33.699219 L 28.398438 66.300781 C 28.398438 69.222656 30.777344 71.601562 33.699219 71.601562 L 66.300781 71.601562 C 69.222656 71.601562 71.601562 69.222656 71.601562 66.300781 L 71.601562 33.699219 C 71.601562 30.777344 69.222656 28.398438 66.300781 28.398438 Z M 33.699219 28.398438 "/>
<path style=" stroke:none;fill-rule:nonzero;fill:rgb(100%,100%,100%);fill-opacity:1;" d="M 49.988281 65.449219 C 46.007812 65.449219 44.527344 65.4375 43.011719 65.371094 C 41.625 65.308594 40.542969 65.097656 39.507812 64.691406 C 38.5 64.304688 37.714844 63.792969 36.953125 63.035156 C 36.199219 62.28125 35.6875 61.492188 35.296875 60.480469 C 34.902344 59.472656 34.691406 58.394531 34.617188 56.976562 C 34.550781 55.449219 34.539062 53.96875 34.539062 50 C 34.539062 46.035156 34.550781 44.558594 34.617188 43.03125 C 34.679688 41.644531 34.890625 40.5625 35.296875 39.527344 C 35.6875 38.507812 36.199219 37.71875 36.953125 36.972656 C 37.707031 36.222656 38.496094 35.710938 39.507812 35.316406 C 40.542969 34.910156 41.625 34.703125 43.011719 34.636719 C 44.578125 34.566406 46.078125 34.546875 49.988281 34.546875 C 53.902344 34.546875 55.402344 34.566406 56.957031 34.636719 C 58.34375 34.699219 59.425781 34.910156 60.464844 35.316406 C 61.484375 35.710938 62.269531 36.21875 63.015625 36.972656 C 63.761719 37.710938 64.277344 38.496094 64.683594 39.527344 C 65.082031 40.574219 65.289062 41.65625 65.351562 43.03125 C 65.421875 44.609375 65.441406 46.109375 65.441406 49.996094 C 65.441406 53.894531 65.421875 55.394531 65.351562 56.976562 C 65.289062 58.351562 65.082031 59.433594 64.683594 60.480469 C 64.277344 61.5 63.761719 62.285156 63.015625 63.03125 C 62.273438 63.785156 61.488281 64.296875 60.472656 64.691406 C 59.421875 65.097656 58.339844 65.304688 56.957031 65.367188 C 55.441406 65.4375 53.964844 65.449219 49.988281 65.449219 Z M 48.679688 37.449219 C 45.929688 37.449219 44.417969 37.472656 43.105469 37.527344 C 41.761719 37.589844 41.023438 37.816406 40.527344 38.003906 C 39.910156 38.246094 39.46875 38.535156 39.003906 39.003906 C 38.535156 39.46875 38.246094 39.90625 38.011719 40.519531 C 37.820312 41.015625 37.59375 41.757812 37.53125 43.105469 C 37.464844 44.609375 37.453125 46 37.453125 49.992188 C 37.453125 53.992188 37.464844 55.382812 37.53125 56.886719 C 37.59375 58.222656 37.816406 58.960938 38.007812 59.457031 C 38.246094 60.078125 38.535156 60.519531 38.996094 60.984375 C 39.472656 61.449219 39.914062 61.734375 40.527344 61.976562 C 41.007812 62.164062 41.730469 62.386719 43.105469 62.453125 C 44.664062 62.523438 46.144531 62.539062 49.992188 62.539062 C 53.847656 62.539062 55.328125 62.523438 56.886719 62.453125 C 58.292969 62.386719 59.035156 62.148438 59.46875 61.976562 C 60.074219 61.742188 60.515625 61.457031 60.984375 60.996094 C 61.449219 60.519531 61.738281 60.078125 61.984375 59.464844 C 62.171875 58.976562 62.390625 58.246094 62.453125 56.886719 C 62.523438 55.316406 62.542969 53.832031 62.542969 49.992188 C 62.542969 46.15625 62.523438 44.675781 62.453125 43.105469 C 62.390625 41.75 62.171875 41.019531 61.988281 40.535156 C 61.746094 39.914062 61.460938 39.472656 60.996094 39.011719 C 60.5 38.519531 60.09375 38.261719 59.449219 38.011719 C 58.984375 37.828125 58.269531 37.605469 56.890625 37.539062 C 55.355469 37.46875 53.871094 37.449219 49.992188 37.449219 Z M 48.679688 37.449219 "/>
<path style=" stroke:none;fill-rule:nonzero;fill:rgb(27.843139%,16.862746%,16.078432%);fill-opacity:1;" d="M 49.988281 34.800781 C 53.898438 34.800781 55.394531 34.820312 56.945312 34.890625 C 58.304688 34.949219 59.359375 35.15625 60.375 35.550781 C 61.359375 35.929688 62.117188 36.421875 62.839844 37.15625 C 63.558594 37.863281 64.058594 38.625 64.449219 39.613281 C 64.839844 40.636719 65.039062 41.695312 65.101562 43.042969 C 65.171875 44.617188 65.191406 46.113281 65.191406 50 C 65.191406 53.894531 65.171875 55.390625 65.101562 56.964844 C 65.039062 58.316406 64.839844 59.371094 64.453125 60.386719 C 64.058594 61.375 63.558594 62.136719 62.835938 62.859375 C 62.121094 63.585938 61.363281 64.078125 60.382812 64.460938 C 59.359375 64.855469 58.300781 65.058594 56.945312 65.121094 C 55.4375 65.1875 53.960938 65.199219 49.992188 65.199219 C 46.011719 65.199219 44.53125 65.1875 43.023438 65.121094 C 41.664062 65.058594 40.609375 64.855469 39.597656 64.460938 C 38.628906 64.085938 37.867188 63.589844 37.132812 62.859375 C 36.40625 62.128906 35.910156 61.367188 35.53125 60.390625 C 35.144531 59.410156 34.941406 58.351562 34.871094 56.96875 C 34.800781 55.445312 34.789062 53.964844 34.789062 50 C 34.789062 46.039062 34.800781 44.5625 34.871094 43.042969 C 34.933594 41.683594 35.136719 40.628906 35.53125 39.613281 C 35.910156 38.628906 36.402344 37.871094 37.132812 37.148438 C 37.859375 36.421875 38.621094 35.929688 39.601562 35.546875 C 40.609375 35.152344 41.664062 34.949219 43.023438 34.886719 C 44.585938 34.820312 46.082031 34.800781 49.988281 34.800781 M 49.988281 62.789062 C 53.851562 62.789062 55.335938 62.769531 56.898438 62.699219 C 58.339844 62.632812 59.109375 62.386719 59.554688 62.207031 C 60.195312 61.960938 60.660156 61.660156 61.164062 61.167969 C 61.652344 60.671875 61.953125 60.203125 62.21875 59.546875 C 62.40625 59.046875 62.636719 58.292969 62.699219 56.898438 C 62.769531 55.320312 62.789062 53.835938 62.789062 49.988281 C 62.789062 46.152344 62.769531 44.667969 62.699219 43.09375 C 62.636719 41.699219 62.40625 40.945312 62.21875 40.441406 C 61.96875 39.796875 61.65625 39.316406 61.167969 38.828125 C 60.648438 38.320312 60.207031 38.035156 59.542969 37.78125 C 59.058594 37.585938 58.316406 37.355469 56.898438 37.289062 C 55.359375 37.21875 53.875 37.199219 49.992188 37.199219 L 48.679688 37.199219 C 45.925781 37.199219 44.410156 37.21875 43.09375 37.277344 C 41.714844 37.34375 40.949219 37.574219 40.433594 37.769531 C 39.792969 38.023438 39.3125 38.335938 38.824219 38.824219 C 38.339844 39.308594 38.023438 39.789062 37.773438 40.429688 C 37.578125 40.941406 37.34375 41.710938 37.277344 43.089844 C 37.210938 44.601562 37.199219 45.992188 37.199219 49.988281 C 37.199219 53.992188 37.210938 55.386719 37.277344 56.894531 C 37.34375 58.269531 37.574219 59.03125 37.773438 59.546875 C 38.023438 60.199219 38.328125 60.667969 38.820312 61.160156 C 39.3125 61.644531 39.796875 61.957031 40.433594 62.207031 C 40.929688 62.402344 41.683594 62.632812 43.089844 62.699219 C 44.65625 62.769531 46.136719 62.789062 49.988281 62.789062 M 49.988281 34.300781 C 46 34.300781 44.535156 34.320312 43 34.390625 C 41.585938 34.453125 40.480469 34.667969 39.417969 35.082031 C 38.371094 35.492188 37.558594 36.019531 36.777344 36.796875 C 36 37.566406 35.46875 38.382812 35.0625 39.4375 C 34.648438 40.496094 34.433594 41.605469 34.371094 43.019531 C 34.300781 44.558594 34.289062 46.039062 34.289062 50 C 34.289062 53.96875 34.300781 55.449219 34.371094 56.988281 C 34.445312 58.433594 34.660156 59.539062 35.0625 60.570312 C 35.46875 61.617188 36 62.429688 36.777344 63.210938 C 37.5625 63.996094 38.378906 64.523438 39.417969 64.925781 C 40.480469 65.34375 41.585938 65.554688 43 65.617188 C 44.539062 65.6875 46.019531 65.699219 49.988281 65.699219 C 53.949219 65.699219 55.429688 65.691406 56.96875 65.617188 C 58.378906 65.554688 59.488281 65.34375 60.5625 64.925781 C 61.613281 64.515625 62.425781 63.988281 63.191406 63.210938 C 63.964844 62.441406 64.496094 61.628906 64.917969 60.570312 C 65.328125 59.496094 65.535156 58.390625 65.601562 56.988281 C 65.671875 55.453125 65.691406 53.988281 65.691406 50 C 65.691406 46.019531 65.671875 44.554688 65.601562 43.019531 C 65.539062 41.617188 65.328125 40.515625 64.917969 39.433594 C 64.496094 38.371094 63.964844 37.558594 63.191406 36.796875 C 62.421875 36.019531 61.609375 35.488281 60.554688 35.082031 C 59.492188 34.664062 58.386719 34.453125 56.96875 34.390625 C 55.441406 34.320312 53.980469 34.300781 49.988281 34.300781 Z M 49.988281 62.289062 C 46.148438 62.289062 44.671875 62.269531 43.113281 62.199219 C 41.777344 62.140625 41.078125 61.921875 40.617188 61.742188 C 40.035156 61.515625 39.617188 61.242188 39.171875 60.804688 C 38.730469 60.363281 38.46875 59.960938 38.238281 59.367188 C 38.058594 58.890625 37.839844 58.171875 37.777344 56.871094 C 37.710938 55.382812 37.699219 53.992188 37.699219 49.988281 C 37.699219 45.992188 37.710938 44.605469 37.777344 43.113281 C 37.839844 41.804688 38.058594 41.089844 38.242188 40.609375 C 38.464844 40.035156 38.738281 39.617188 39.179688 39.179688 C 39.617188 38.738281 40.035156 38.464844 40.617188 38.238281 C 41.089844 38.058594 41.808594 37.839844 43.117188 37.777344 C 44.421875 37.722656 45.929688 37.699219 48.679688 37.699219 L 49.992188 37.699219 C 53.867188 37.699219 55.347656 37.71875 56.875 37.789062 C 58.222656 37.851562 58.910156 38.066406 59.359375 38.246094 C 59.96875 38.480469 60.347656 38.722656 60.816406 39.183594 C 61.253906 39.621094 61.527344 40.039062 61.753906 40.621094 C 61.929688 41.085938 62.140625 41.792969 62.203125 43.117188 C 62.269531 44.671875 62.289062 46.152344 62.289062 49.992188 C 62.289062 53.839844 62.269531 55.320312 62.203125 56.878906 C 62.140625 58.199219 61.929688 58.902344 61.75 59.371094 C 61.515625 59.957031 61.25 60.367188 60.808594 60.820312 C 60.363281 61.257812 59.957031 61.519531 59.375 61.742188 C 58.953125 61.910156 58.246094 62.140625 56.875 62.203125 C 55.320312 62.269531 53.839844 62.289062 49.988281 62.289062 Z M 49.988281 62.289062 "/>
<path style=" stroke:none;fill-rule:nonzero;fill:rgb(100%,100%,100%);fill-opacity:1;" d="M 58.5 43.25 C 57.535156 43.25 56.75 42.464844 56.75 41.5 C 56.75 40.535156 57.535156 39.75 58.5 39.75 C 58.96875 39.75 59.40625 39.933594 59.738281 40.261719 C 60.066406 40.59375 60.25 41.03125 60.25 41.5 C 60.25 42.464844 59.464844 43.25 58.5 43.25 Z M 58.5 43.25 "/>
<path style=" stroke:none;fill-rule:nonzero;fill:rgb(27.843139%,16.862746%,16.078432%);fill-opacity:1;" d="M 58.5 40 C 59.328125 40 60 40.671875 60 41.5 C 60 42.328125 59.328125 43 58.5 43 C 57.671875 43 57 42.328125 57 41.5 C 57 40.671875 57.671875 40 58.5 40 M 58.5 39.5 C 57.398438 39.5 56.5 40.398438 56.5 41.5 C 56.5 42.601562 57.398438 43.5 58.5 43.5 C 59.601562 43.5 60.5 42.601562 60.5 41.5 C 60.5 40.398438 59.601562 39.5 58.5 39.5 Z M 58.5 39.5 "/>
<path style=" stroke:none;fill-rule:nonzero;fill:rgb(100%,100%,100%);fill-opacity:1;" d="M 49.988281 41.503906 C 45.292969 41.503906 41.488281 45.308594 41.488281 50.003906 C 41.488281 54.699219 45.292969 58.503906 49.988281 58.503906 C 54.683594 58.503906 58.488281 54.699219 58.488281 50.003906 C 58.488281 45.3125 54.683594 41.503906 49.988281 41.503906 Z M 49.988281 44.503906 C 53.023438 44.503906 55.488281 46.96875 55.488281 50.003906 C 55.488281 53.042969 53.023438 55.503906 49.988281 55.503906 C 46.949219 55.503906 44.488281 53.042969 44.488281 50.003906 C 44.488281 46.96875 46.949219 44.503906 49.988281 44.503906 Z M 49.988281 44.503906 "/>
<path style=" stroke:none;fill-rule:nonzero;fill:rgb(27.843139%,16.862746%,16.078432%);fill-opacity:1;" d="M 49.988281 58.753906 C 45.164062 58.753906 41.238281 54.828125 41.238281 50.003906 C 41.238281 45.179688 45.164062 41.253906 49.988281 41.253906 C 54.8125 41.253906 58.738281 45.179688 58.738281 50.003906 C 58.738281 54.828125 54.8125 58.753906 49.988281 58.753906 Z M 49.988281 41.753906 C 45.4375 41.753906 41.738281 45.453125 41.738281 50.003906 C 41.738281 54.554688 45.4375 58.253906 49.988281 58.253906 C 54.535156 58.253906 58.238281 54.554688 58.238281 50.003906 C 58.238281 45.453125 54.535156 41.753906 49.988281 41.753906 Z M 49.988281 55.753906 C 46.816406 55.753906 44.238281 53.175781 44.238281 50.003906 C 44.238281 46.835938 46.816406 44.253906 49.988281 44.253906 C 53.160156 44.253906 55.738281 46.835938 55.738281 50.003906 C 55.738281 53.175781 53.160156 55.753906 49.988281 55.753906 Z M 49.988281 44.753906 C 47.09375 44.753906 44.738281 47.109375 44.738281 50.003906 C 44.738281 52.898438 47.09375 55.253906 49.988281 55.253906 C 52.882812 55.253906 55.238281 52.898438 55.238281 50.003906 C 55.238281 47.109375 52.882812 44.753906 49.988281 44.753906 Z M 49.988281 44.753906 "/>
</g>
</svg>
