<?xml version="1.0" encoding="UTF-8"?>
<svg xmlns="http://www.w3.org/2000/svg" xmlns:xlink="http://www.w3.org/1999/xlink" viewBox="0 0 100 100" width="100px" height="100px">
<g id="surface23868852">
<path style=" stroke:none;fill-rule:nonzero;fill:rgb(93.333334%,24.313726%,32.941177%);fill-opacity:1;" d="M 15 29 C 15 30.105469 14.105469 31 13 31 C 11.894531 31 11 30.105469 11 29 C 11 27.894531 11.894531 27 13 27 C 14.105469 27 15 27.894531 15 29 Z M 15 29 "/>
<path style=" stroke:none;fill-rule:nonzero;fill:rgb(94.509804%,73.725492%,9.803922%);fill-opacity:1;" d="M 78 13 C 78 13.550781 77.550781 14 77 14 C 76.449219 14 76 13.550781 76 13 C 76 12.449219 76.449219 12 77 12 C 77.550781 12 78 12.449219 78 13 Z M 78 13 "/>
<path style=" stroke:none;fill-rule:nonzero;fill:rgb(50.980395%,67.450982%,100%);fill-opacity:1;" d="M 87 50 C 87 70.433594 70.433594 87 50 87 C 29.566406 87 13 70.433594 13 50 C 13 29.566406 29.566406 13 50 13 C 70.433594 13 87 29.566406 87 50 Z M 87 50 "/>
<path style=" stroke:none;fill-rule:nonzero;fill:rgb(94.509804%,73.725492%,9.803922%);fill-opacity:1;" d="M 87 15 C 87 17.210938 85.210938 19 83 19 C 80.789062 19 79 17.210938 79 15 C 79 12.789062 80.789062 11 83 11 C 85.210938 11 87 12.789062 87 15 Z M 87 15 "/>
<path style=" stroke:none;fill-rule:nonzero;fill:rgb(93.333334%,24.313726%,32.941177%);fill-opacity:1;" d="M 89 24 C 89 25.105469 88.105469 26 87 26 C 85.894531 26 85 25.105469 85 24 C 85 22.894531 85.894531 22 87 22 C 88.105469 22 89 22.894531 89 24 Z M 89 24 "/>
<path style=" stroke:none;fill-rule:nonzero;fill:rgb(98.431373%,80.392158%,34.901962%);fill-opacity:1;" d="M 83 76 C 83 77.105469 82.105469 78 81 78 C 79.894531 78 79 77.105469 79 76 C 79 74.894531 79.894531 74 81 74 C 82.105469 74 83 74.894531 83 76 Z M 83 76 "/>
<path style=" stroke:none;fill-rule:nonzero;fill:rgb(98.431373%,80.392158%,34.901962%);fill-opacity:1;" d="M 19 63 C 19 65.210938 17.210938 67 15 67 C 12.789062 67 11 65.210938 11 63 C 11 60.789062 12.789062 59 15 59 C 17.210938 59 19 60.789062 19 63 Z M 19 63 "/>
<path style=" stroke:none;fill-rule:nonzero;fill:rgb(93.333334%,24.313726%,32.941177%);fill-opacity:1;" d="M 27 87 C 27 88.105469 26.105469 89 25 89 C 23.894531 89 23 88.105469 23 87 C 23 85.894531 23.894531 85 25 85 C 26.105469 85 27 85.894531 27 87 Z M 27 87 "/>
<path style=" stroke:none;fill-rule:nonzero;fill:rgb(100%,100%,100%);fill-opacity:1;" d="M 21 53.5 C 21 54.878906 19.878906 56 18.5 56 C 17.121094 56 16 54.878906 16 53.5 C 16 52.121094 17.121094 51 18.5 51 C 19.878906 51 21 52.121094 21 53.5 Z M 21 53.5 "/>
<path style=" stroke:none;fill-rule:nonzero;fill:rgb(94.509804%,73.725492%,9.803922%);fill-opacity:1;" d="M 22 67 C 22 67.550781 21.550781 68 21 68 C 20.449219 68 20 67.550781 20 67 C 20 66.449219 20.449219 66 21 66 C 21.550781 66 22 66.449219 22 67 Z M 22 67 "/>
<path style=" stroke:none;fill-rule:nonzero;fill:rgb(100%,100%,100%);fill-opacity:1;" d="M 81 34 C 81 34.550781 80.550781 35 80 35 C 79.449219 35 79 34.550781 79 34 C 79 33.449219 79.449219 33 80 33 C 80.550781 33 81 33.449219 81 34 Z M 81 34 "/>
<path style=" stroke:none;fill-rule:nonzero;fill:rgb(47.058824%,62.7451%,81.176472%);fill-opacity:1;" d="M 28.003906 65 L 28 35 C 28 31.136719 31.136719 28 35 28 L 65 28 C 68.867188 28 72 31.132812 72 35 L 72 65 C 72 68.867188 68.867188 72 65 72 L 35.003906 72 C 31.140625 72 28.003906 68.867188 28.003906 65 Z M 28.003906 65 "/>
<path style=" stroke:none;fill-rule:nonzero;fill:rgb(27.843139%,16.862746%,16.078432%);fill-opacity:1;" d="M 65 28.398438 C 68.640625 28.398438 71.601562 31.359375 71.601562 35 L 71.601562 65 C 71.601562 68.640625 68.640625 71.601562 65 71.601562 L 35 71.601562 C 31.359375 71.601562 28.398438 68.640625 28.398438 65 L 28.398438 35 C 28.398438 31.359375 31.359375 28.398438 35 28.398438 L 65 28.398438 M 65 27 L 35 27 C 30.582031 27 27 30.582031 27 35 L 27 65 C 27 69.417969 30.582031 73 35 73 L 65 73 C 69.417969 73 73 69.417969 73 65 L 73 35 C 73 30.582031 69.417969 27 65 27 Z M 65 27 "/>
<path style=" stroke:none;fill-rule:nonzero;fill:rgb(100%,100%,100%);fill-opacity:1;" d="M 61.5 59.5 L 38.5 59.5 C 36.84375 59.5 35.5 58.15625 35.5 56.5 L 35.5 43.5 C 35.5 41.84375 36.84375 40.5 38.5 40.5 L 61.5 40.5 C 63.15625 40.5 64.5 41.84375 64.5 43.5 L 64.5 56.5 C 64.5 58.15625 63.15625 59.5 61.5 59.5 Z M 61.5 59.5 "/>
<path style=" stroke:none;fill-rule:nonzero;fill:rgb(27.843139%,16.862746%,16.078432%);fill-opacity:1;" d="M 61.5 60 L 38.5 60 C 36.570312 60 35 58.429688 35 56.5 L 35 43.5 C 35 41.570312 36.570312 40 38.5 40 L 61.5 40 C 63.429688 40 65 41.570312 65 43.5 L 65 56.5 C 65 58.429688 63.429688 60 61.5 60 Z M 38.5 41 C 37.121094 41 36 42.121094 36 43.5 L 36 56.5 C 36 57.878906 37.121094 59 38.5 59 L 61.5 59 C 62.878906 59 64 57.878906 64 56.5 L 64 43.5 C 64 42.121094 62.878906 41 61.5 41 Z M 38.5 41 "/>
<path style=" stroke:none;fill-rule:nonzero;fill:rgb(27.843139%,16.862746%,16.078432%);fill-opacity:1;" d="M 50 53.964844 C 48.925781 53.964844 47.847656 53.554688 47.03125 52.738281 L 36.144531 41.855469 C 35.949219 41.660156 35.949219 41.34375 36.144531 41.148438 C 36.339844 40.953125 36.65625 40.953125 36.851562 41.148438 L 47.738281 52.03125 C 48.984375 53.277344 51.015625 53.277344 52.261719 52.03125 L 63.144531 41.144531 C 63.339844 40.949219 63.65625 40.949219 63.851562 41.144531 C 64.046875 41.339844 64.046875 41.65625 63.851562 41.851562 L 52.96875 52.738281 C 52.152344 53.554688 51.074219 53.964844 50 53.964844 Z M 50 53.964844 "/>
<path style=" stroke:none;fill-rule:nonzero;fill:rgb(27.843139%,16.862746%,16.078432%);fill-opacity:1;" d="M 36.5 59 C 36.371094 59 36.242188 58.949219 36.144531 58.855469 C 35.949219 58.660156 35.949219 58.34375 36.144531 58.148438 L 44.644531 49.648438 C 44.839844 49.453125 45.15625 49.453125 45.351562 49.648438 C 45.546875 49.84375 45.546875 50.160156 45.351562 50.355469 L 36.851562 58.855469 C 36.757812 58.949219 36.628906 59 36.5 59 Z M 36.5 59 "/>
<path style=" stroke:none;fill-rule:nonzero;fill:rgb(27.843139%,16.862746%,16.078432%);fill-opacity:1;" d="M 63.5 59 C 63.371094 59 63.242188 58.949219 63.144531 58.855469 L 54.644531 50.355469 C 54.449219 50.160156 54.449219 49.84375 54.644531 49.648438 C 54.839844 49.453125 55.15625 49.453125 55.351562 49.648438 L 63.851562 58.148438 C 64.046875 58.34375 64.046875 58.660156 63.851562 58.855469 C 63.757812 58.949219 63.628906 59 63.5 59 Z M 63.5 59 "/>
<path style=" stroke:none;fill-rule:nonzero;fill:rgb(27.843139%,16.862746%,16.078432%);fill-opacity:1;" d="M 69.5 42 C 69.222656 42 69 41.777344 69 41.5 L 69 35.5 C 69 33.019531 66.980469 31 64.5 31 L 51.5 31 C 51.222656 31 51 30.777344 51 30.5 C 51 30.222656 51.222656 30 51.5 30 L 64.5 30 C 67.53125 30 70 32.46875 70 35.5 L 70 41.5 C 70 41.777344 69.777344 42 69.5 42 Z M 69.5 42 "/>
<path style=" stroke:none;fill-rule:nonzero;fill:rgb(27.843139%,16.862746%,16.078432%);fill-opacity:1;" d="M 48.5 31 L 45.5 31 C 45.222656 31 45 30.777344 45 30.5 C 45 30.222656 45.222656 30 45.5 30 L 48.5 30 C 48.777344 30 49 30.222656 49 30.5 C 49 30.777344 48.777344 31 48.5 31 Z M 48.5 31 "/>
<path style=" stroke:none;fill-rule:nonzero;fill:rgb(27.843139%,16.862746%,16.078432%);fill-opacity:1;" d="M 64.5 70 L 35.5 70 C 32.46875 70 30 67.53125 30 64.5 L 30 35.5 C 30 32.46875 32.46875 30 35.5 30 L 42.5 30 C 42.777344 30 43 30.222656 43 30.5 C 43 30.777344 42.777344 31 42.5 31 L 35.5 31 C 33.019531 31 31 33.019531 31 35.5 L 31 64.5 C 31 66.980469 33.019531 69 35.5 69 L 64.5 69 C 66.980469 69 69 66.980469 69 64.5 L 69 60.5 C 69 60.222656 69.222656 60 69.5 60 C 69.777344 60 70 60.222656 70 60.5 L 70 64.5 C 70 67.53125 67.53125 70 64.5 70 Z M 64.5 70 "/>
<path style=" stroke:none;fill-rule:nonzero;fill:rgb(27.843139%,16.862746%,16.078432%);fill-opacity:1;" d="M 69.5 58 C 69.222656 58 69 57.777344 69 57.5 L 69 48.5 C 69 48.222656 69.222656 48 69.5 48 C 69.777344 48 70 48.222656 70 48.5 L 70 57.5 C 70 57.777344 69.777344 58 69.5 58 Z M 69.5 58 "/>
</g>
</svg>
